<svg width="285" height="67" viewBox="0 0 285 67" fill="none" xmlns="http://www.w3.org/2000/svg">
<path fill-rule="evenodd" clip-rule="evenodd" d="M24 1H40V6.33334C40 16.6426 48.3573 25 58.6667 25H64V41H58.6667C39.5208 41 24 25.4792 24 6.33334V1Z" fill="black"/>
<path fill-rule="evenodd" clip-rule="evenodd" d="M40 59.6667L40 65L24 65L24 59.6667C24 49.3574 15.6427 41 5.33349 41L0.000162156 41L0.000153383 25L5.33349 25C24.4793 25 40 40.5209 40 59.6667Z" fill="black"/>
<path d="M82 65.0256V21.0453H94.6272V27.5736H95.4862C96.746 25.1684 98.4926 23.25 100.726 21.8184C102.959 20.3867 105.45 19.6709 108.199 19.6709C111.063 19.6709 113.725 20.444 116.188 21.9902C118.708 23.4791 120.54 25.4834 121.685 28.0031H122.544C123.919 25.4261 125.78 23.4218 128.128 21.9902C130.533 20.5013 133.282 19.7568 136.374 19.7568C139.581 19.7568 142.444 20.5299 144.964 22.0761C147.484 23.565 149.459 25.6838 150.891 28.4326C152.323 31.1814 153.039 34.3024 153.039 37.7956V65.0256H140.325V39.9431C140.325 37.2516 139.552 35.0468 138.006 33.3288C136.46 31.5536 134.484 30.6373 132.079 30.5801C129.617 30.5801 127.584 31.4677 125.98 33.243C124.434 34.9609 123.661 37.1943 123.661 39.9431V65.0256H110.862V39.9431C110.862 37.0798 110.146 34.8178 108.715 33.1571C107.283 31.4391 105.365 30.5801 102.959 30.5801C100.44 30.5801 98.4354 31.4391 96.9464 33.1571C95.4575 34.875 94.7131 37.137 94.7131 39.9431V65.0256H82Z" fill="black"/>
<path d="M167.181 14.9464C164.948 14.9464 163.115 14.2593 161.683 12.8849C160.252 11.4532 159.536 9.64933 159.536 7.47322C159.536 5.29711 160.252 3.52186 161.683 2.14748C163.115 0.715825 164.948 0 167.181 0C169.414 0 171.247 0.715825 172.679 2.14748C174.11 3.52186 174.826 5.29711 174.826 7.47322C174.826 9.64933 174.11 11.4532 172.679 12.8849C171.247 14.2593 169.414 14.9464 167.181 14.9464ZM173.538 65.0256H160.824V21.0453H173.538V65.0256Z" fill="black"/>
<path d="M181.997 65.0256V21.0453H194.539V27.0582H195.483C196.457 24.9966 197.917 23.3359 199.864 22.0761C201.869 20.8162 204.016 20.1863 206.307 20.1863C208.139 20.1863 209.8 20.5585 211.289 21.303V32.7276C210.144 32.2122 208.884 31.8113 207.509 31.525C206.192 31.2386 205.047 31.0955 204.073 31.0955C201.267 31.0955 199.005 32.1549 197.287 34.2737C195.569 36.3926 194.71 39.1414 194.71 42.5201V65.0256H181.997Z" fill="black"/>
<path d="M223.136 14.9464C220.903 14.9464 219.07 14.2593 217.639 12.8849C216.207 11.4532 215.491 9.64933 215.491 7.47322C215.491 5.29711 216.207 3.52186 217.639 2.14748C219.07 0.715825 220.903 0 223.136 0C225.37 0 227.202 0.715825 228.634 2.14748C230.065 3.52186 230.781 5.29711 230.781 7.47322C230.781 9.64933 230.065 11.4532 228.634 12.8849C227.202 14.2593 225.37 14.9464 223.136 14.9464ZM229.493 65.0256H216.78V21.0453H229.493V65.0256Z" fill="black"/>
<path d="M260.286 66.4C255.419 66.4 251.152 65.4551 247.487 63.5653C243.822 61.6183 240.959 58.8982 238.897 55.4049C236.893 51.8544 235.891 47.7313 235.891 43.0354C235.891 38.3396 236.893 34.2451 238.897 30.7519C240.959 27.2014 243.822 24.4812 247.487 22.5915C251.152 20.6444 255.419 19.6709 260.286 19.6709C265.097 19.6709 269.334 20.6444 272.999 22.5915C276.722 24.4812 279.585 27.2014 281.589 30.7519C283.651 34.2451 284.682 38.3396 284.682 43.0354C284.682 47.7313 283.651 51.8544 281.589 55.4049C279.585 58.8982 276.722 61.6183 272.999 63.5653C269.334 65.4551 265.097 66.4 260.286 66.4ZM260.286 55.5767C263.665 55.5767 266.442 54.4028 268.618 52.0549C270.795 49.7069 271.883 46.7005 271.883 43.0354C271.883 39.3704 270.795 36.3926 268.618 34.1019C266.442 31.754 263.665 30.5801 260.286 30.5801C256.85 30.5801 254.044 31.754 251.868 34.1019C249.692 36.3926 248.604 39.3704 248.604 43.0354C248.604 46.7005 249.692 49.7069 251.868 52.0549C254.044 54.4028 256.85 55.5767 260.286 55.5767Z" fill="black"/>
</svg>
