<svg width="77" height="26" viewBox="0 0 77 26" fill="none" xmlns="http://www.w3.org/2000/svg">
<path d="M0.792 25V8.616H5.496V11.048H5.816C6.28533 10.152 6.936 9.43733 7.768 8.904C8.6 8.37067 9.528 8.104 10.552 8.104C11.6187 8.104 12.6107 8.392 13.528 8.968C14.4667 9.52267 15.1493 10.2693 15.576 11.208H15.896C16.408 10.248 17.1013 9.50133 17.976 8.968C18.872 8.41333 19.896 8.136 21.048 8.136C22.2427 8.136 23.3093 8.424 24.248 9C25.1867 9.55467 25.9227 10.344 26.456 11.368C26.9893 12.392 27.256 13.5547 27.256 14.856V25H22.52V15.656C22.52 14.6533 22.232 13.832 21.656 13.192C21.08 12.5307 20.344 12.1893 19.448 12.168C18.5307 12.168 17.7733 12.4987 17.176 13.16C16.6 13.8 16.312 14.632 16.312 15.656V25H11.544V15.656C11.544 14.5893 11.2773 13.7467 10.744 13.128C10.2107 12.488 9.496 12.168 8.6 12.168C7.66133 12.168 6.91467 12.488 6.36 13.128C5.80533 13.768 5.528 14.6107 5.528 15.656V25H0.792ZM32.5245 6.344C31.6925 6.344 31.0098 6.088 30.4765 5.576C29.9432 5.04267 29.6765 4.37067 29.6765 3.56C29.6765 2.74933 29.9432 2.088 30.4765 1.576C31.0098 1.04267 31.6925 0.775999 32.5245 0.775999C33.3565 0.775999 34.0392 1.04267 34.5725 1.576C35.1058 2.088 35.3725 2.74933 35.3725 3.56C35.3725 4.37067 35.1058 5.04267 34.5725 5.576C34.0392 6.088 33.3565 6.344 32.5245 6.344ZM34.8925 25H30.1565V8.616H34.8925V25ZM38.044 25V8.616H42.716V10.856H43.068C43.4307 10.088 43.9747 9.46933 44.7 9C45.4467 8.53067 46.2467 8.296 47.1 8.296C47.7827 8.296 48.4013 8.43467 48.956 8.712V12.968C48.5293 12.776 48.06 12.6267 47.548 12.52C47.0573 12.4133 46.6307 12.36 46.268 12.36C45.2227 12.36 44.38 12.7547 43.74 13.544C43.1 14.3333 42.78 15.3573 42.78 16.616V25H38.044ZM53.3695 6.344C52.5375 6.344 51.8548 6.088 51.3215 5.576C50.7882 5.04267 50.5215 4.37067 50.5215 3.56C50.5215 2.74933 50.7882 2.088 51.3215 1.576C51.8548 1.04267 52.5375 0.775999 53.3695 0.775999C54.2015 0.775999 54.8842 1.04267 55.4175 1.576C55.9508 2.088 56.2175 2.74933 56.2175 3.56C56.2175 4.37067 55.9508 5.04267 55.4175 5.576C54.8842 6.088 54.2015 6.344 53.3695 6.344ZM55.7375 25H51.0015V8.616H55.7375V25ZM67.209 25.512C65.3957 25.512 63.8063 25.16 62.441 24.456C61.0757 23.7307 60.009 22.7173 59.241 21.416C58.4943 20.0933 58.121 18.5573 58.121 16.808C58.121 15.0587 58.4943 13.5333 59.241 12.232C60.009 10.9093 61.0757 9.896 62.441 9.192C63.8063 8.46667 65.3957 8.104 67.209 8.104C69.001 8.104 70.5797 8.46667 71.945 9.192C73.3317 9.896 74.3983 10.9093 75.145 12.232C75.913 13.5333 76.297 15.0587 76.297 16.808C76.297 18.5573 75.913 20.0933 75.145 21.416C74.3983 22.7173 73.3317 23.7307 71.945 24.456C70.5797 25.16 69.001 25.512 67.209 25.512ZM67.209 21.48C68.4677 21.48 69.5023 21.0427 70.313 20.168C71.1237 19.2933 71.529 18.1733 71.529 16.808C71.529 15.4427 71.1237 14.3333 70.313 13.48C69.5023 12.6053 68.4677 12.168 67.209 12.168C65.929 12.168 64.8837 12.6053 64.073 13.48C63.2623 14.3333 62.857 15.4427 62.857 16.808C62.857 18.1733 63.2623 19.2933 64.073 20.168C64.8837 21.0427 65.929 21.48 67.209 21.48Z" fill="black"/>
</svg>
